<?xml version="1.0" standalone="no"?>
<!DOCTYPE svg PUBLIC "-//W3C//DTD SVG 20010904//EN"
 "http://www.w3.org/TR/2001/REC-SVG-20010904/DTD/svg10.dtd">
<svg version="1.0" xmlns="http://www.w3.org/2000/svg"
 width="200.000000pt" height="200.000000pt" viewBox="0 0 200.000000 200.000000"
 preserveAspectRatio="xMidYMid meet">

<g transform="translate(0.000000,200.000000) scale(0.100000,-0.100000)"
fill="#000000" stroke="none">
<path d="M803 1647 l-192 -112 -1 -107 c0 -60 3 -108 6 -108 3 0 88 47 188
105 101 58 189 105 196 105 7 0 95 -47 196 -105 100 -58 185 -105 188 -105 3
0 6 48 6 108 l-1 107 -190 110 c-105 61 -193 111 -197 112 -4 1 -93 -49 -199
-110z"/>
<path d="M610 1113 c0 -5 0 -139 0 -300 1 -320 4 -347 59 -427 70 -102 196
-152 361 -144 136 7 235 54 297 141 59 81 62 107 63 434 l1 298 -100 3 -100 3
-3 -278 c-3 -250 -5 -282 -22 -316 -51 -102 -204 -128 -296 -50 -52 43 -60 94
-60 385 l0 258 -100 0 c-55 0 -100 -3 -100 -7z"/>
</g>
</svg>
