<?xml version="1.0" standalone="no"?>
<!DOCTYPE svg PUBLIC "-//W3C//DTD SVG 20010904//EN"
 "http://www.w3.org/TR/2001/REC-SVG-20010904/DTD/svg10.dtd">
<svg version="1.0" xmlns="http://www.w3.org/2000/svg"
 width="225.000000pt" height="225.000000pt" viewBox="0 0 225.000000 225.000000"
 preserveAspectRatio="xMidYMid meet">

<g transform="translate(0.000000,225.000000) scale(0.100000,-0.100000)"
fill="#000000" stroke="none">
<path d="M571 1602 c-70 -38 -71 -42 -71 -467 0 -350 1 -383 18 -415 38 -71
25 -70 612 -70 509 0 526 1 558 20 60 37 62 49 62 467 0 424 -1 431 -70 465
-32 16 -80 18 -555 18 -485 0 -523 -1 -554 -18z m238 -212 c30 -15 181 -207
181 -228 0 -26 -163 -228 -189 -235 -27 -7 -61 19 -61 46 0 12 31 59 70 105
l70 84 -62 74 c-34 41 -65 77 -70 80 -14 9 -9 52 8 68 18 18 28 20 53 6z m561
-510 c8 -14 8 -26 0 -40 -10 -19 -21 -20 -194 -20 -158 0 -185 2 -190 16 -10
26 -7 52 7 57 6 3 92 6 189 6 167 1 178 0 188 -19z"/>
</g>
</svg>
